<svg xmlns="http://www.w3.org/2000/svg" width="264" height="45" viewBox="0 0 264 45">
  <defs>
    <style>
      .cls-1 {
        fill: #141515;
        fill-rule: evenodd;
      }
    </style>
  </defs>
  <path id="Лого" class="cls-1" d="M439.462,71.1v42.8H437.6V71.1h1.867ZM407.017,76.14V115h-4.944v-4.668a0.782,0.782,0,0,0-.657-0.79c-0.173-.034-0.311-0.069-0.484-0.1a22.187,22.187,0,0,1-5.462-2.06,17.371,17.371,0,0,1-4.426-3.433,15.726,15.726,0,0,1-2.973-4.909A18.479,18.479,0,0,1,387,92.653a18.171,18.171,0,0,1,1.072-6.283,15.342,15.342,0,0,1,2.939-4.977,16.881,16.881,0,0,1,4.356-3.571,21.415,21.415,0,0,1,5.5-2.2c0.173-.034.38-0.1,0.553-0.137a0.809,0.809,0,0,0,.657-0.79v-3.09A1.617,1.617,0,0,1,403.7,70H415.28a1.647,1.647,0,0,1,1.659,1.613V74.7a0.779,0.779,0,0,0,.622.79c0.208,0.035.381,0.1,0.553,0.137a21.437,21.437,0,0,1,5.5,2.2A17.656,17.656,0,0,1,428,81.393a15.865,15.865,0,0,1,2.9,4.977,17.385,17.385,0,0,1,1.072,6.283,18.456,18.456,0,0,1-1.072,6.386,15.726,15.726,0,0,1-2.973,4.909,16.8,16.8,0,0,1-4.425,3.433,21.69,21.69,0,0,1-5.463,2.06c-0.138.034-.311,0.069-0.484,0.1a0.754,0.754,0,0,0-.622.79V115h-4.978V76.14a1.229,1.229,0,0,0-1.21-1.236h-2.524a1.228,1.228,0,0,0-1.21,1.236h0ZM402.073,103.5V81.461a0.668,0.668,0,0,0-.83-0.584,14.018,14.018,0,0,0-4.114,2.334,10.681,10.681,0,0,0-2.939,3.914,13.155,13.155,0,0,0-1.071,5.527,12.459,12.459,0,0,0,1.071,5.424,9.685,9.685,0,0,0,2.939,3.776,13.678,13.678,0,0,0,4.114,2.231,0.631,0.631,0,0,0,.553-0.1,0.547,0.547,0,0,0,.277-0.48h0Zm14.866-22.04V103.5a0.518,0.518,0,0,0,.242.48,0.651,0.651,0,0,0,.553.1,14.264,14.264,0,0,0,4.149-2.231,10.38,10.38,0,0,0,2.939-3.776,13,13,0,0,0,1.037-5.424,13.729,13.729,0,0,0-1.037-5.527,11.51,11.51,0,0,0-2.939-3.914,13.761,13.761,0,0,0-4.149-2.334,0.558,0.558,0,0,0-.553.1,0.518,0.518,0,0,0-.242.481h0Zm32.339,6.583c-2.516-.084-4.587-1.339-4.587-3.92s2.071-3.851,4.573-3.948V79.265h2.377v0.911c2.585,0.1,4.573,1.228,4.573,3.948s-2.071,3.836-4.587,3.92V89h-2.349V88.044Zm0.028-2.126V82.343c-1.084.041-2.071,0.4-2.071,1.781S448.291,85.85,449.306,85.918Zm2.293-3.575v3.575c1.029-.069,2.071-0.414,2.071-1.794S452.684,82.385,451.6,82.343Zm9.274,5.425-0.556,1.2h-2.655V88.623l4.462-9.412h1.168l4.42,9.412v0.345h-2.627l-0.57-1.2h-3.642Zm0.82-2.112h2.016l-1.015-2.332Zm10.788-2.885h1.794c2.349,0,3.488,1.326,3.488,3.023s-1.167,3.174-3.488,3.174h-4.282V79.307h6.992v2.208h-4.5v1.256Zm0,2.1V86.76h1.78a0.949,0.949,0,0,0,1.028-.953,0.932,0.932,0,0,0-1.028-.938h-1.78Zm8.175,4.086V79.293c1.446,0,2.85-.014,4.3,0a3.583,3.583,0,0,1,0,7.164H483.2v2.5h-2.544Zm4.3-4.693a1.255,1.255,0,0,0,1.057-1.408,1.2,1.2,0,0,0-1.057-1.367h-1.793v2.775h1.793ZM491.931,89H491.18V79.307h2.544v4.72l5.073-4.762h0.793v9.7h-2.544V83.987Zm14.889-3.754a11.336,11.336,0,0,1-1.21.041v3.685h-2.543V79.307h2.543v3.782a3.711,3.711,0,0,0,1.418-.153c0.445-.22.6-0.8,0.876-1.96s1.237-2.125,3.517-1.656v1.7a0.945,0.945,0,0,0-1.182.69,6.082,6.082,0,0,1-1.195,2.567c0.931,1.435,1.835,2.884,2.78,4.32v0.373h-2.878Zm9.69,2.526-0.556,1.2H513.3V88.623l4.462-9.412h1.168l4.42,9.412v0.345h-2.627l-0.57-1.2H516.51Zm0.82-2.112h2.016l-1.015-2.332ZM453.379,95.873v9.661h-2.544V98.15h-3v7.384h-2.543V95.873h8.09Zm3.49,9.647V95.859c1.446,0,2.85-.013,4.295,0a3.583,3.583,0,0,1,0,7.163h-1.751v2.5h-2.544Zm4.295-4.693a1.255,1.255,0,0,0,1.057-1.407,1.2,1.2,0,0,0-1.057-1.367h-1.793v2.774h1.793Zm12.3-2.76h-3.531v1.38h3.253v2.209h-3.253v1.573h3.656v2.305h-6.2V95.873h6.075v2.194Zm2.989,5.328c0.751-.014.9-0.331,1.015-1.229l0.737-6.293h6.714V103.4H485.9v3.271h-2.057v-1.132h-5.811v1.132H476.1V103.4h0.361Zm3.517-1.145a1.827,1.827,0,0,1-.444,1.2h2.863V98.039h-1.974Zm17.113-6.377v9.661h-2.543V98.15h-3v7.384H489V95.873h8.09Zm3.491,9.647V95.859c1.446,0,2.85-.013,4.3,0a3.583,3.583,0,0,1,0,7.163h-1.751v2.5h-2.544Zm4.3-4.693a1.256,1.256,0,0,0,1.057-1.407,1.2,1.2,0,0,0-1.057-1.367H503.08v2.774h1.793Zm6.98,4.735H511.1V95.873h2.544v4.72l5.073-4.763h0.793v9.7h-2.544v-4.982Zm16.7-.028v-3.865h-3.017v3.865h-2.544V95.873h2.544v3.492h3.017V95.873h2.543v9.661h-2.543Zm6.771,0.028h-0.751V95.873h2.544v4.72l5.074-4.763h0.792v9.7h-2.544v-4.982Zm19.754-9.716h0.9v9.688h-2.543v-4.457l-2.072,2.152h-0.291L549,101.077v4.457h-2.543V95.846h0.9l3.864,4.181Zm6.382,8.487-0.556,1.2h-2.655V105.19l4.462-9.414h1.167l4.421,9.414v0.344h-2.627l-0.57-1.2h-3.642Zm0.82-2.111h2.015l-1.014-2.333Zm6.743-4.141V95.873h7.228v2.208h-2.376v7.454H571.41V98.081h-2.391Zm16-.014h-3.531v1.38h3.253v2.209h-3.253v1.573h3.656v2.305h-6.2V95.873h6.074v2.194Zm6.395,4.486c-0.25,2.8-1.181,3.312-3.975,2.926l0.041-1.808c1.112,0.1,1.293-.166,1.4-1.2l0.681-6.6h6.867v9.661H593.9V98.122H591.79Zm10.969-3.8h1.793a3.39,3.39,0,1,1,0,6.778H599.91V95.873h2.474v2.884Zm0,2.223v2.333c0.584,0,1.2.027,1.793,0a1.173,1.173,0,0,0,0-2.333h-1.793Zm12.484-5.2a4.334,4.334,0,0,1,4.573,3.658H617a2,2,0,0,0-2.127-1.381,2.4,2.4,0,0,0-2.433,2.651,2.475,2.475,0,0,0,2.433,2.622,2.021,2.021,0,0,0,2.155-1.532h2.446a4.335,4.335,0,0,1-4.6,3.837A4.928,4.928,0,1,1,614.868,95.776Zm6.7,2.3V95.873H628.8v2.208h-2.377v7.454h-2.46V98.081H621.57Zm16.5,2.388a2.242,2.242,0,0,1,1.209,2.071,2.826,2.826,0,0,1-3.085,2.94H631.51V95.83H635.8a2.866,2.866,0,0,1,3.072,2.968A2.267,2.267,0,0,1,638.071,100.468Zm-4.017-2.443v1.615h1.571a0.738,0.738,0,0,0,.75-0.759,0.763,0.763,0,0,0-.75-0.856h-1.571Zm0,3.658v1.6h1.96a0.743,0.743,0,0,0,.75-0.745,0.767,0.767,0,0,0-.764-0.856h-1.946Zm10.107,2.65-0.556,1.2H640.95V105.19l4.462-9.414h1.168L651,105.19v0.344h-2.627l-0.57-1.2h-3.642Zm0.82-2.111H647l-1.015-2.333Z" transform="translate(-387 -70)"/>
</svg>
