<?xml version="1.0" encoding="UTF-8"?>
<svg xmlns="http://www.w3.org/2000/svg" width="198" height="131" viewBox="0 0 198 131" fill="none">
  <path d="M37.8831 11.373C37.8831 14.4747 36.5735 17.025 34.0921 18.7481C32.3689 19.851 30.5768 20.3335 28.8537 20.5402V23.5041H24.5113V20.4713C22.7881 20.2645 20.996 19.782 19.2728 18.6792C16.9293 17.0939 15.5508 14.4747 15.5508 11.373C15.5508 8.3402 16.8604 5.65205 19.2728 3.92888C20.996 2.82606 22.7881 2.27464 24.5113 2.06786V0.482544H28.8537V1.99893C30.5768 2.20571 32.4378 2.82606 34.0921 3.92888C36.6424 5.65205 37.8831 8.3402 37.8831 11.373ZM24.5802 16.06V6.68596C23.5463 6.89274 22.6502 7.16844 21.961 7.71986C20.7203 8.54698 20.2378 9.71873 20.2378 11.3041C20.2378 12.9583 20.7203 14.13 21.961 14.9572C22.5813 15.5086 23.4774 15.8532 24.5802 16.06ZM33.3339 11.373C33.3339 9.71873 32.7825 8.54698 31.6107 7.78878C30.9215 7.3063 29.9565 6.96166 28.9226 6.75488V16.1289C29.9565 15.9221 30.9215 15.5775 31.6107 15.0261C32.7825 14.13 33.3339 12.9583 33.3339 11.373Z" fill="#009FE3"></path>
  <path d="M43.4665 20.1955C41.6054 17.9899 40.7783 15.026 40.7783 11.9933C40.7783 8.96048 41.6054 5.99663 43.4665 3.72205C45.4653 1.24068 48.636 0 51.9445 0C55.2529 0 58.3547 1.24068 60.4225 3.72205C62.3524 6.06556 63.0417 8.89156 63.1106 11.9933C63.0417 15.1639 62.2835 17.921 60.4225 20.1955C58.2857 22.7458 55.184 23.9865 51.9445 23.9865C48.636 23.9865 45.4653 22.6769 43.4665 20.1955ZM56.9761 17.5763C58.1479 16.0599 58.4925 13.9921 58.4925 11.9933C58.4925 9.99438 58.0789 7.92658 56.9761 6.41019C55.8044 4.82488 53.9433 4.13561 51.9445 4.06668C49.9456 3.99775 48.0156 4.82488 46.9128 6.41019C45.7411 7.92658 45.3275 9.99438 45.3275 11.9933C45.3275 13.9921 45.7411 16.0599 46.9128 17.5763C48.0156 19.0927 49.9456 19.8509 51.9445 19.8509C53.9433 19.8509 55.8044 19.0927 56.9761 17.5763Z" fill="#009FE3"></path>
  <path d="M85.8562 0.482544V23.5041H81.5138V13.9922H71.2438V23.5041H66.9014V0.482544H71.2438V9.92552H81.5138V0.482544H85.8562Z" fill="#009FE3"></path>
  <path d="M111.635 19.4374V26.399H107.568V23.5041H93.7825V26.399H89.7158V19.4374C91.3011 19.4374 92.335 17.5764 92.7486 13.9233L94.3339 0.482544H110.256V19.4374H111.635ZM106.189 4.54923H97.987L96.8153 14.4058C96.5396 16.5425 96.2639 18.2657 95.3678 19.4374H106.189V4.54923Z" fill="#009FE3"></path>
  <path d="M32.0242 45.216C30.5767 46.7324 28.5778 47.3527 26.2343 47.3527H20.858V55.2104H16.5156V32.1888H26.2343C28.9224 32.1888 30.4388 32.8781 31.7484 34.1188C33.4027 35.7041 34.023 37.3584 34.092 39.7708C34.092 41.9764 33.2648 43.9753 32.0242 45.216ZM29.6806 39.7708C29.6806 38.9437 29.4739 37.9098 28.9224 37.2205C28.371 36.5312 27.5439 36.2555 26.3722 36.2555H20.858V43.2861H26.3722C27.2682 43.2861 28.3021 42.8725 28.9914 42.0454C29.4739 41.494 29.6806 40.529 29.6806 39.7708Z" fill="#009FE3"></path>
  <path d="M50.566 50.3855H41.9502L40.5027 55.2104H36.0225L43.053 32.1888H49.5321L56.5626 55.2104H52.0824L50.566 50.3855ZM49.3253 46.3188L46.2236 36.2555L43.1219 46.3188H49.3253Z" fill="#009FE3"></path>
  <path d="M62.2836 32.947C63.869 32.1199 65.73 31.7063 67.4531 31.7063C69.5899 31.7063 72.0023 32.1888 73.6566 33.4984C75.3108 34.6702 76.2758 36.6001 76.2758 38.6679C76.2758 39.3572 76.069 40.46 75.8622 41.1493C75.5865 41.9075 75.104 42.5967 74.5526 43.286C75.3108 43.9063 75.7933 44.5956 76.2068 45.4227C76.6893 46.3877 76.8961 47.5595 76.8961 48.8001C76.8961 50.868 75.5865 53.0047 73.7944 54.1075C72.0023 55.2793 69.5209 55.7618 67.5221 55.7618C65.5921 55.7618 63.5243 55.4171 61.8701 54.5211C60.2158 53.625 58.9751 52.3843 58.0791 50.868L61.2497 48.3177C61.8701 49.2826 62.6972 50.1098 63.7311 50.7301C64.8339 51.3504 66.1435 51.6951 67.3842 51.6951C68.8317 51.6951 70.2791 51.4194 71.313 50.5233C71.9334 49.903 72.2091 49.2826 72.2091 48.7312C72.2091 47.8352 71.9334 47.008 71.313 46.5256C70.5549 45.9052 69.3142 45.5606 68.2113 45.5606H64.765V41.3561H68.2113C69.1763 41.3561 70.1413 41.0803 70.8306 40.5289C71.4509 40.0464 71.6577 39.2882 71.6577 38.6679C71.6577 37.8408 71.313 37.2204 70.6927 36.669C69.7967 35.9108 68.487 35.7041 67.3842 35.7041C66.0057 35.7041 65.1096 36.0487 63.9379 36.6001C62.9729 37.0826 62.1458 37.7029 61.5254 38.3233L58.8373 35.2216C59.8023 34.3944 61.1119 33.4984 62.2836 32.947Z" fill="#009FE3"></path>
  <path d="M97.9186 48.1799C97.9186 50.2477 97.3672 52.1776 95.9198 53.4872C94.6101 54.7279 93.2316 55.2104 90.4745 55.2104H80.7559V32.1888H89.9231C91.922 32.1888 93.4384 32.6024 94.8169 33.912C96.1955 35.2216 96.8158 36.8759 96.8158 38.7369C96.8158 40.3911 96.1265 41.9075 95.1616 42.6657C94.9548 42.8036 94.8169 42.9414 94.6101 43.0793C95.1616 43.2861 95.6441 43.5618 96.0576 43.9753C97.2294 44.8714 97.9186 46.5945 97.9186 48.1799ZM85.1672 36.2555V41.1493H89.9231C90.8881 41.1493 91.4395 40.8736 91.922 40.3911C92.3356 39.9086 92.4734 39.3572 92.4734 38.7369C92.4734 38.1165 92.2666 37.4273 91.7841 36.9448C91.3017 36.4623 90.6813 36.2555 89.9231 36.2555H85.1672ZM93.5762 48.1799C93.5762 47.4217 93.3695 46.5945 92.7491 45.9742C92.0599 45.2849 91.1638 45.216 90.5435 45.216H85.1672V51.0748H90.4745C91.3706 51.0748 92.0599 50.7991 92.6802 50.2477C93.2316 49.6963 93.5762 49.007 93.5762 48.1799Z" fill="#009FE3"></path>
  <path d="M120.595 32.1888V55.2104H116.184V39.8397L106.189 55.2104H101.709V32.1888H106.12V47.5595L116.184 32.1888H120.595Z" fill="#009FE3"></path>
  <path d="M142.307 36.2555H135.07V55.2104H130.658V36.2555H123.421V32.1888H142.238V36.2555H142.307Z" fill="#009FE3"></path>
  <path d="M163.95 32.1888V55.2104H159.539V39.8397L149.544 55.2104H145.133V32.1888H149.544V47.5595L159.539 32.1888H163.95Z" fill="#009FE3"></path>
  <path d="M185.041 55.2104H180.699V47.3527H175.874L172.083 55.2104H167.189L171.394 46.5256C170.705 46.181 170.084 45.7674 169.602 45.216C168.292 43.9064 167.465 41.9764 167.534 39.7708C167.534 37.3584 168.223 35.7041 169.878 34.1188C171.187 32.8092 172.704 32.1888 175.392 32.1888H185.11V55.2104H185.041ZM180.699 43.2861V36.2555H175.185C174.013 36.2555 173.186 36.5312 172.635 37.2205C172.083 37.9098 171.876 38.9437 171.876 39.7708C171.876 40.529 172.083 41.494 172.635 42.0454C173.324 42.8725 174.358 43.2861 175.254 43.2861H180.699Z" fill="#009FE3"></path>
  <path d="M32.7137 64.6533V84.7799H28.8538V71.3392L20.1001 84.8489H16.2402V64.6533H20.1001V78.094L28.8538 64.6533H32.7137Z" fill="black"></path>
  <path d="M53.5293 64.6533V84.7799H49.7384V76.5087H40.7089V84.8489H36.918V64.6533H40.7089V72.9245H49.7384V64.6533H53.5293Z" fill="black"></path>
  <path d="M74.3457 64.6533V84.7799H70.5548V76.5087H61.5253V84.8489H57.7344V64.6533H61.5253V72.9245H70.5548V64.6533H74.3457Z" fill="black"></path>
  <path d="M80.0662 81.9541C78.4119 80.0241 77.7227 77.4738 77.7227 74.7857C77.7227 72.0975 78.4809 69.5472 80.0662 67.5484C81.8583 65.3427 84.5464 64.2399 87.5103 64.2399C90.4741 64.2399 93.1623 65.3427 94.9544 67.5484C96.6775 69.6162 97.2289 72.0975 97.2979 74.7857C97.2289 77.6117 96.6086 79.9552 94.9544 81.9541C93.0933 84.1597 90.3363 85.2625 87.5103 85.2625C84.6153 85.2625 81.7893 84.1597 80.0662 81.9541ZM91.8526 79.6795C92.8866 78.3699 93.2312 76.5778 93.2312 74.7857C93.2312 72.9936 92.8866 71.2015 91.8526 69.8919C90.8187 68.5823 89.1645 67.893 87.4413 67.893C85.7182 67.893 83.995 68.5823 83.03 69.8919C81.9961 71.2015 81.6515 73.0625 81.6515 74.7857C81.6515 76.5778 81.9961 78.3699 83.03 79.6795C83.995 81.058 85.7182 81.6783 87.4413 81.6783C89.1645 81.6783 90.8877 80.9891 91.8526 79.6795Z" fill="black"></path>
  <path d="M115.633 78.6455C115.633 80.4376 115.15 82.1607 113.91 83.3325C112.738 84.4353 111.497 84.8489 109.154 84.8489H100.676V64.6533H108.74C110.532 64.6533 111.842 64.998 113.083 66.1697C114.323 67.3415 114.806 68.72 114.875 70.4432C114.875 71.8906 114.254 73.2002 113.427 73.8895C113.289 74.0274 113.152 74.1652 112.945 74.2341C113.427 74.4409 113.841 74.6477 114.254 74.9923C115.013 75.8195 115.633 77.2669 115.633 78.6455ZM104.467 68.2375V72.5799H108.602C109.429 72.5799 109.981 72.3042 110.394 71.8906C110.808 71.4771 110.877 70.9946 110.877 70.4432C110.877 69.8918 110.739 69.2714 110.257 68.8579C109.843 68.4443 109.292 68.2375 108.602 68.2375H104.467ZM111.842 78.6455C111.842 77.9562 111.635 77.2669 111.153 76.7155C110.532 76.0952 109.774 76.0262 109.223 76.0262H104.467V81.1958H109.154C109.981 81.1958 110.532 80.92 111.084 80.4376C111.635 79.9551 111.842 79.4037 111.842 78.6455Z" fill="black"></path>
  <path d="M130.383 80.6443H122.801L121.491 84.8488H117.562L123.697 64.7222H129.349L135.483 84.8488H131.555L130.383 80.6443ZM129.28 77.0601L126.523 68.2374L123.835 77.0601H129.28Z" fill="black"></path>
  <path d="M157.471 81.4715V87.3302H153.68V84.7799H138.447V64.6533H142.238V81.4715H151.406V65.2047H155.196V81.4715H157.471Z" fill="black"></path>
  <path d="M177.322 64.6533V84.7799H173.462V71.3392L164.709 84.7799H160.849V64.6533H164.709V78.094L173.462 64.6533H177.322Z" fill="black"></path>
  <path d="M198 64.653V84.7797H194.14V71.3389L185.386 84.7797H181.526V64.653H185.386V78.0938L194.14 64.653H198ZM194.898 58.5186C194.898 60.9999 192.899 62.9988 190.418 62.9988C187.937 62.9988 185.938 60.9999 185.938 58.5186H188.902C188.902 59.3457 189.591 60.0349 190.418 60.0349C191.245 60.0349 191.934 59.3457 191.934 58.5186H194.898Z" fill="black"></path>
  <path d="M197.931 99.1747H75.1729V117.371H197.931V99.1747Z" fill="black"></path>
  <path d="M115.013 116.407H75.1729V130.261H115.013V116.407Z" fill="black"></path>
  <path d="M82.8929 107.446H80.9629V111.512H79.6533V102.207H80.9629V106.205H82.8929L85.7878 102.207H87.2353L83.9268 106.688L87.3731 111.443H85.8567L82.8929 107.446Z" fill="white"></path>
  <path d="M94.2651 104.826C94.8165 105.102 95.2301 105.516 95.5058 106.067C95.7815 106.618 95.9883 107.239 95.9883 107.928C95.9883 108.617 95.8504 109.238 95.5058 109.789C95.2301 110.341 94.7476 110.754 94.2651 111.03C93.7137 111.306 93.0934 111.512 92.4041 111.512C91.9216 111.512 91.4391 111.443 91.0256 111.237C90.612 111.03 90.2674 110.754 89.9917 110.409V114.063H88.751V104.482H89.9917V105.585C90.2674 105.171 90.612 104.895 91.0945 104.689C91.508 104.482 91.9905 104.413 92.542 104.413C93.0934 104.413 93.7137 104.551 94.2651 104.826ZM93.5069 110.134C93.8516 109.927 94.1273 109.651 94.3341 109.238C94.5408 108.893 94.6787 108.411 94.6787 107.928C94.6787 107.446 94.5408 107.032 94.3341 106.618C94.1273 106.274 93.8516 105.929 93.5069 105.722C93.1623 105.516 92.7487 105.447 92.2662 105.447C91.8527 105.447 91.4391 105.585 91.0945 105.791C90.7499 105.998 90.4741 106.274 90.2674 106.687C90.0606 107.032 89.9227 107.515 89.9227 107.997C89.9227 108.48 89.9917 108.893 90.1984 109.307C90.4052 109.651 90.6809 109.996 91.0256 110.203C91.3702 110.409 91.7838 110.547 92.2662 110.547C92.7487 110.478 93.1623 110.341 93.5069 110.134Z" fill="white"></path>
  <path d="M102.468 105.102C103.019 105.585 103.226 106.274 103.226 107.239V111.512H101.985V110.547C101.778 110.892 101.503 111.099 101.089 111.306C100.675 111.512 100.262 111.581 99.7104 111.581C98.9523 111.581 98.263 111.374 97.8494 111.03C97.3669 110.616 97.1602 110.134 97.1602 109.513C97.1602 108.893 97.3669 108.411 97.8494 107.997C98.3319 107.652 99.0212 107.446 99.9862 107.446H101.985V107.17C101.985 106.618 101.847 106.205 101.503 105.929C101.158 105.654 100.744 105.516 100.124 105.516C99.7104 105.516 99.2969 105.585 98.8833 105.722C98.4698 105.86 98.1251 106.067 97.8494 106.274L97.298 105.309C97.6426 105.033 98.1251 104.826 98.6076 104.62C99.0901 104.482 99.6415 104.413 100.193 104.413C101.227 104.413 101.985 104.62 102.468 105.102ZM101.227 110.272C101.571 110.065 101.847 109.72 101.985 109.376V108.411H100.055C98.9523 108.411 98.4698 108.755 98.4698 109.513C98.4698 109.858 98.6076 110.134 98.8833 110.341C99.159 110.547 99.5037 110.616 100.055 110.616C100.469 110.616 100.882 110.478 101.227 110.272Z" fill="white"></path>
  <path d="M106.741 111.099C106.19 110.823 105.707 110.34 105.432 109.789C105.087 109.238 104.949 108.617 104.949 107.928C104.949 107.239 105.087 106.618 105.432 106.067C105.776 105.516 106.19 105.102 106.741 104.826C107.293 104.551 107.913 104.344 108.671 104.344C109.292 104.344 109.843 104.482 110.394 104.757C110.877 105.033 111.29 105.378 111.566 105.86L110.601 106.481C110.394 106.136 110.119 105.86 109.774 105.722C109.429 105.585 109.085 105.447 108.671 105.447C108.189 105.447 107.775 105.516 107.431 105.722C107.086 105.929 106.81 106.205 106.535 106.618C106.328 106.963 106.19 107.446 106.19 107.928C106.19 108.411 106.328 108.824 106.535 109.238C106.741 109.582 107.017 109.927 107.431 110.134C107.844 110.34 108.189 110.409 108.671 110.409C109.085 110.409 109.429 110.34 109.774 110.134C110.119 109.996 110.394 109.72 110.601 109.376L111.566 109.996C111.29 110.478 110.877 110.823 110.394 111.099C109.912 111.374 109.361 111.512 108.671 111.512C107.913 111.581 107.293 111.443 106.741 111.099Z" fill="white"></path>
  <path d="M113.151 104.482H114.392V107.446H118.39V104.482H119.63V111.512H118.39V108.548H114.392V111.512H113.151V104.482Z" fill="white"></path>
  <path d="M123.283 111.099C122.732 110.823 122.318 110.34 121.974 109.789C121.629 109.238 121.491 108.617 121.491 107.928C121.491 107.239 121.629 106.618 121.974 106.067C122.318 105.516 122.732 105.102 123.283 104.826C123.835 104.551 124.455 104.344 125.144 104.344C125.834 104.344 126.454 104.482 127.005 104.826C127.557 105.102 127.97 105.585 128.315 106.067C128.66 106.618 128.797 107.239 128.797 107.928C128.797 108.617 128.66 109.238 128.315 109.789C127.97 110.34 127.557 110.754 127.005 111.099C126.454 111.374 125.834 111.581 125.144 111.581C124.455 111.581 123.835 111.443 123.283 111.099ZM126.385 110.134C126.73 109.927 127.005 109.651 127.212 109.238C127.419 108.824 127.488 108.411 127.488 107.928C127.488 107.446 127.419 107.032 127.212 106.618C127.005 106.205 126.73 105.929 126.385 105.722C126.04 105.516 125.627 105.447 125.144 105.447C124.662 105.447 124.317 105.516 123.904 105.722C123.559 105.929 123.283 106.205 123.077 106.618C122.87 106.963 122.732 107.446 122.732 107.928C122.732 108.411 122.87 108.824 123.077 109.238C123.283 109.582 123.559 109.927 123.904 110.134C124.248 110.34 124.662 110.478 125.144 110.478C125.627 110.478 126.04 110.34 126.385 110.134Z" fill="white"></path>
  <path d="M137.758 110.41V113.167H136.586V111.512H130.659V113.167H129.418V110.41H129.763C130.245 110.41 130.521 110.065 130.659 109.445C130.797 108.824 130.934 107.997 131.003 106.825L131.141 104.482H136.586V110.41H137.758ZM132.106 109.1C131.968 109.651 131.761 110.065 131.486 110.341H135.415V105.516H132.382L132.313 106.894C132.244 107.79 132.175 108.548 132.106 109.1Z" fill="white"></path>
  <path d="M144.168 105.102C144.72 105.585 144.926 106.274 144.926 107.239V111.512H143.755V110.547C143.548 110.892 143.272 111.099 142.859 111.306C142.445 111.512 142.031 111.581 141.48 111.581C140.722 111.581 140.033 111.374 139.619 111.03C139.136 110.616 138.93 110.134 138.93 109.513C138.93 108.893 139.136 108.411 139.619 107.997C140.101 107.652 140.791 107.446 141.756 107.446H143.755V107.17C143.755 106.618 143.617 106.205 143.272 105.929C142.927 105.654 142.514 105.516 141.894 105.516C141.48 105.516 141.066 105.585 140.653 105.722C140.239 105.86 139.895 106.067 139.619 106.274L139.068 105.309C139.412 105.033 139.895 104.826 140.377 104.62C140.86 104.482 141.411 104.413 141.962 104.413C142.859 104.413 143.617 104.62 144.168 105.102ZM142.859 110.272C143.203 110.065 143.479 109.72 143.617 109.376V108.411H141.687C140.584 108.411 140.101 108.755 140.101 109.513C140.101 109.858 140.239 110.134 140.515 110.341C140.791 110.547 141.135 110.616 141.687 110.616C142.1 110.616 142.514 110.478 142.859 110.272Z" fill="white"></path>
  <path d="M152.784 104.826C153.336 105.102 153.749 105.516 154.025 106.067C154.301 106.618 154.507 107.239 154.507 107.928C154.507 108.617 154.37 109.238 154.025 109.789C153.749 110.341 153.267 110.754 152.784 111.03C152.233 111.306 151.612 111.512 150.923 111.512C150.441 111.512 149.958 111.443 149.545 111.237C149.131 111.03 148.786 110.754 148.511 110.409V114.063H147.201V104.482H148.442V105.585C148.718 105.171 149.062 104.895 149.545 104.689C149.958 104.482 150.441 104.413 150.992 104.413C151.612 104.413 152.233 104.551 152.784 104.826ZM152.026 110.134C152.371 109.927 152.646 109.651 152.853 109.238C153.06 108.893 153.198 108.411 153.198 107.928C153.198 107.446 153.06 107.032 152.853 106.618C152.646 106.274 152.371 105.929 152.026 105.722C151.681 105.516 151.268 105.447 150.785 105.447C150.372 105.447 149.958 105.585 149.614 105.791C149.269 105.998 148.993 106.274 148.786 106.687C148.58 107.032 148.442 107.515 148.442 107.997C148.442 108.48 148.511 108.893 148.718 109.307C148.924 109.651 149.2 109.996 149.545 110.203C149.889 110.409 150.303 110.547 150.785 110.547C151.268 110.478 151.681 110.341 152.026 110.134Z" fill="white"></path>
  <path d="M157.472 111.099C156.92 110.823 156.438 110.34 156.162 109.789C155.818 109.238 155.68 108.617 155.68 107.928C155.68 107.239 155.818 106.618 156.162 106.067C156.507 105.516 156.92 105.102 157.472 104.826C158.023 104.551 158.644 104.344 159.402 104.344C160.022 104.344 160.573 104.482 161.125 104.757C161.607 105.033 162.021 105.378 162.297 105.86L161.332 106.481C161.125 106.136 160.849 105.86 160.505 105.722C160.16 105.585 159.815 105.447 159.402 105.447C158.919 105.447 158.506 105.516 158.161 105.722C157.816 105.929 157.541 106.205 157.265 106.618C157.058 106.963 156.92 107.446 156.92 107.928C156.92 108.411 157.058 108.824 157.265 109.238C157.472 109.582 157.747 109.927 158.161 110.134C158.575 110.34 158.919 110.409 159.402 110.409C159.815 110.409 160.16 110.34 160.505 110.134C160.849 109.996 161.125 109.72 161.332 109.376L162.297 109.996C162.021 110.478 161.607 110.823 161.125 111.099C160.642 111.374 160.091 111.512 159.402 111.512C158.712 111.581 158.023 111.443 157.472 111.099Z" fill="white"></path>
  <path d="M166.638 108.548H165.191V111.512H163.95V104.482H165.191V107.446H166.707L168.982 104.482H170.36L167.672 107.859L170.498 111.512H168.982L166.638 108.548Z" fill="white"></path>
  <path d="M172.704 111.099C172.153 110.823 171.739 110.34 171.395 109.789C171.05 109.238 170.912 108.617 170.912 107.928C170.912 107.239 171.05 106.618 171.395 106.067C171.739 105.516 172.153 105.102 172.704 104.826C173.256 104.551 173.876 104.344 174.565 104.344C175.255 104.344 175.875 104.482 176.426 104.826C176.978 105.102 177.391 105.585 177.736 106.067C178.081 106.618 178.218 107.239 178.218 107.928C178.218 108.617 178.081 109.238 177.736 109.789C177.391 110.34 176.978 110.754 176.426 111.099C175.875 111.374 175.255 111.581 174.565 111.581C173.945 111.581 173.256 111.443 172.704 111.099ZM175.806 110.134C176.151 109.927 176.426 109.651 176.633 109.238C176.84 108.824 176.909 108.411 176.909 107.928C176.909 107.446 176.84 107.032 176.633 106.618C176.426 106.205 176.151 105.929 175.806 105.722C175.461 105.516 175.048 105.447 174.565 105.447C174.083 105.447 173.738 105.516 173.325 105.722C172.98 105.929 172.704 106.205 172.497 106.618C172.291 106.963 172.153 107.446 172.153 107.928C172.153 108.411 172.291 108.824 172.497 109.238C172.704 109.582 172.98 109.927 173.325 110.134C173.669 110.34 174.083 110.478 174.565 110.478C175.048 110.478 175.461 110.34 175.806 110.134Z" fill="white"></path>
  <path d="M185.249 105.585H181.32V111.512H180.079V104.482H185.249V105.585Z" fill="white"></path>
  <path d="M187.386 111.099C186.834 110.823 186.421 110.34 186.076 109.789C185.732 109.238 185.594 108.617 185.594 107.928C185.594 107.239 185.732 106.618 186.076 106.067C186.421 105.516 186.834 105.102 187.386 104.826C187.937 104.551 188.558 104.344 189.247 104.344C189.936 104.344 190.556 104.482 191.108 104.826C191.659 105.102 192.073 105.585 192.418 106.067C192.762 106.618 192.9 107.239 192.9 107.928C192.9 108.617 192.762 109.238 192.418 109.789C192.073 110.34 191.659 110.754 191.108 111.099C190.556 111.374 189.936 111.581 189.247 111.581C188.558 111.581 187.937 111.443 187.386 111.099ZM190.488 110.134C190.832 109.927 191.108 109.651 191.315 109.238C191.521 108.824 191.59 108.411 191.59 107.928C191.59 107.446 191.521 107.032 191.315 106.618C191.108 106.205 190.832 105.929 190.488 105.722C190.143 105.516 189.729 105.447 189.247 105.447C188.764 105.447 188.42 105.516 188.006 105.722C187.662 105.929 187.386 106.205 187.179 106.618C186.972 106.963 186.834 107.446 186.834 107.928C186.834 108.411 186.972 108.824 187.179 109.238C187.386 109.582 187.662 109.927 188.006 110.134C188.351 110.34 188.764 110.478 189.247 110.478C189.729 110.478 190.143 110.34 190.488 110.134Z" fill="white"></path>
  <path d="M82.1344 122.334H80.687V125.298H79.4463V118.267H80.687V121.231H82.2034L84.4779 118.267H85.8565L83.1683 121.645L85.9943 125.298H84.4779L82.1344 122.334Z" fill="white"></path>
  <path d="M92.8872 118.612C93.4386 118.888 93.8522 119.301 94.1279 119.853C94.4036 120.404 94.6104 121.024 94.6104 121.714C94.6104 122.403 94.4725 123.023 94.1279 123.575C93.8522 124.126 93.3697 124.54 92.8872 124.815C92.3358 125.091 91.7154 125.298 91.0262 125.298C90.5437 125.298 90.0612 125.229 89.6476 125.022C89.2341 124.815 88.8894 124.54 88.6137 124.195V127.848H87.373V118.267H88.6137V119.37C88.8894 118.957 89.2341 118.681 89.7166 118.474C90.1301 118.267 90.6126 118.198 91.164 118.198C91.7154 118.198 92.3358 118.336 92.8872 118.612ZM92.1979 123.919C92.5426 123.712 92.8183 123.437 93.025 123.023C93.2318 122.679 93.3697 122.196 93.3697 121.714C93.3697 121.231 93.2318 120.818 93.025 120.404C92.8183 120.059 92.5426 119.715 92.1979 119.508C91.8533 119.301 91.4397 119.232 90.9572 119.232C90.5437 119.232 90.1301 119.37 89.7855 119.577C89.4409 119.784 89.1651 120.059 88.9584 120.473C88.7516 120.818 88.6137 121.3 88.6137 121.783C88.6137 122.265 88.6827 122.679 88.8894 123.092C89.0962 123.437 89.3719 123.781 89.7166 123.988C90.0612 124.195 90.4748 124.333 90.9572 124.333C91.4397 124.264 91.7844 124.126 92.1979 123.919Z" fill="white"></path>
  <path d="M101.158 118.888C101.709 119.37 101.916 120.059 101.916 121.024V125.298H100.675V124.333C100.469 124.677 100.193 124.884 99.7794 125.091C99.3659 125.298 98.9523 125.367 98.4009 125.367C97.6427 125.367 96.9534 125.16 96.5399 124.815C96.0574 124.402 95.8506 123.919 95.8506 123.299C95.8506 122.679 96.0574 122.196 96.5399 121.783C97.0223 121.438 97.7116 121.231 98.6766 121.231H100.675V120.955C100.675 120.404 100.538 119.99 100.193 119.715C99.8483 119.439 99.4348 119.301 98.8144 119.301C98.4009 119.301 97.9873 119.37 97.5738 119.508C97.1602 119.646 96.8156 119.853 96.5399 120.059L95.9884 119.094C96.3331 118.819 96.8156 118.612 97.298 118.405C97.7805 118.267 98.332 118.198 98.8834 118.198C99.8483 118.198 100.607 118.405 101.158 118.888ZM99.8483 124.057C100.193 123.85 100.469 123.506 100.607 123.161V122.196H98.6766C97.5738 122.196 97.0913 122.541 97.0913 123.299C97.0913 123.644 97.2291 123.919 97.5048 124.126C97.7805 124.333 98.1252 124.402 98.6766 124.402C99.0901 124.402 99.5037 124.264 99.8483 124.057Z" fill="white"></path>
  <path d="M109.843 118.267V125.298H108.671V123.092H106.604H106.535L105.018 125.298H103.64L105.363 122.885C104.811 122.747 104.398 122.472 104.122 122.127C103.846 121.782 103.709 121.3 103.709 120.748C103.709 119.921 103.984 119.301 104.536 118.887C105.087 118.474 105.845 118.267 106.81 118.267H109.843ZM105.432 121.782C105.707 121.989 106.19 122.127 106.741 122.127H108.671V119.37H106.741C105.501 119.37 104.88 119.852 104.88 120.748C104.949 121.231 105.156 121.576 105.432 121.782Z" fill="white"></path>
  <rect y="0.000244141" width="3.49892" height="84.7516" fill="#009FE3"></rect>
  <ellipse cx="52.2373" cy="12.6707" rx="10.003" ry="10.4475" fill="#009FE3"></ellipse>
</svg>
