<svg width="40" height="40" viewBox="0 0 40 40" fill="none" xmlns="http://www.w3.org/2000/svg">
<path d="M20 0C8.95111 0 0 8.95111 0 20C0 31.0489 8.95111 40 20 40C31.0489 40 40 31.0489 40 20C40 8.95111 31.0489 0 20 0ZM29.8222 13.6978L26.5422 29.1644C26.3022 30.2578 25.6444 30.5244 24.7378 30.0089L19.7333 26.3289L17.3244 28.6489C17.0578 28.9156 16.8356 29.1378 16.32 29.1378L16.6756 24.0533L25.9378 15.68C26.3378 15.3244 25.8489 15.12 25.3156 15.4756L13.8667 22.6933L8.92444 21.1556C7.84889 20.8178 7.83111 20.08 9.14667 19.5644L28.4267 12.1333C29.3333 11.8044 30.1156 12.3467 29.8222 13.6978Z" fill="black"/>
</svg>
